<svg id="Layer_1" data-name="Layer 1" xmlns="http://www.w3.org/2000/svg" viewBox="0 0 1715.74 1080"><defs><style>.cls-1{fill:#2b454e;}.cls-2{fill:#5ae3a6;}.cls-3{fill:#ff5a51;}.cls-4{fill:#f4bf00;}.cls-5{fill:#00c100;}.cls-6{fill:#ececec;}.cls-7{fill:#a8a8a8;}</style></defs><title>code-editor</title><rect class="cls-1" width="1715.74" height="1080"/><rect class="cls-2" width="1715.74" height="91.91"/><path class="cls-3" d="M194.16,46.38a24,24,0,1,1-24-24A24,24,0,0,1,194.16,46.38Z" transform="translate(-102.13 -0.5)"/><circle class="cls-4" cx="165.96" cy="45.88" r="23.98"/><path class="cls-5" d="M390,46.38a24,24,0,1,1-24-24A24,24,0,0,1,390,46.38Z" transform="translate(-102.13 -0.5)"/><rect class="cls-6" x="107.23" y="283.4" width="53.62" height="15.32"/><rect class="cls-6" x="191.49" y="283.4" width="666.38" height="15.32"/><rect class="cls-6" x="1317.45" y="283.4" width="199.15" height="15.32"/><rect class="cls-2" x="888.51" y="283.4" width="99.57" height="15.32"/><rect class="cls-6" x="1049.36" y="536.17" width="99.57" height="15.32"/><rect class="cls-7" x="1018.72" y="283.4" width="275.74" height="15.32"/><rect class="cls-6" x="153.19" y="337.02" width="53.62" height="15.32"/><rect class="cls-7" x="245.11" y="337.02" width="382.98" height="15.32"/><rect class="cls-7" x="880.85" y="536.17" width="145.53" height="15.32"/><rect class="cls-7" x="191.49" y="482.55" width="367.66" height="15.32"/><rect class="cls-2" x="237.45" y="382.98" width="260.43" height="15.32"/><rect class="cls-7" x="957.45" y="436.6" width="260.43" height="15.32"/><rect class="cls-7" x="528.51" y="382.98" width="497.87" height="15.32"/><rect class="cls-2" x="191.49" y="536.17" width="651.06" height="15.32"/><rect class="cls-2" x="1003.4" y="337.02" width="367.66" height="15.32"/><rect class="cls-6" x="651.06" y="337.02" width="329.36" height="15.32"/><rect class="cls-6" x="1064.68" y="382.98" width="114.89" height="15.32"/><rect class="cls-6" x="153.19" y="382.98" width="53.62" height="15.32"/><rect class="cls-7" x="107.23" y="436.6" width="53.62" height="15.32"/><rect class="cls-6" x="191.49" y="436.6" width="298.72" height="15.32"/><rect class="cls-6" x="245.11" y="582.13" width="298.72" height="15.32"/><rect class="cls-2" x="750.64" y="635.74" width="337.02" height="15.32"/><rect class="cls-2" x="566.81" y="582.13" width="390.64" height="15.32"/><rect class="cls-6" x="375.32" y="635.74" width="344.68" height="15.32"/><rect class="cls-7" x="245.11" y="635.74" width="114.89" height="15.32"/><rect class="cls-7" x="1118.3" y="635.74" width="84.26" height="15.32"/><rect class="cls-6" x="574.47" y="482.55" width="413.62" height="15.32"/><rect class="cls-2" x="1011.06" y="482.55" width="314.04" height="15.32"/><rect class="cls-2" x="520.85" y="436.6" width="413.62" height="15.32"/><rect class="cls-6" x="107.23" y="482.55" width="53.62" height="15.32"/><rect class="cls-6" x="107.23" y="536.17" width="53.62" height="15.32"/><rect class="cls-7" x="153.19" y="582.13" width="53.62" height="15.32"/><rect class="cls-7" x="988.09" y="582.13" width="245.11" height="15.32"/><rect class="cls-7" x="1034.04" y="674.04" width="245.11" height="15.32"/><rect class="cls-6" x="153.19" y="635.74" width="53.62" height="15.32"/><rect class="cls-6" x="107.23" y="674.04" width="53.62" height="15.32"/><rect class="cls-6" x="191.49" y="674.04" width="597.45" height="15.32"/><rect class="cls-6" x="1317.45" y="674.04" width="191.49" height="15.32"/><rect class="cls-2" x="819.57" y="674.04" width="168.51" height="15.32"/><rect class="cls-6" x="153.19" y="727.66" width="53.62" height="15.32"/><rect class="cls-7" x="245.11" y="727.66" width="382.98" height="15.32"/><rect class="cls-7" x="191.49" y="873.19" width="367.66" height="15.32"/><rect class="cls-2" x="237.45" y="773.62" width="260.43" height="15.32"/><rect class="cls-7" x="528.51" y="773.62" width="497.87" height="15.32"/><rect class="cls-2" x="191.49" y="926.81" width="651.06" height="15.32"/><rect class="cls-2" x="1003.4" y="727.66" width="367.66" height="15.32"/><rect class="cls-6" x="651.06" y="727.66" width="329.36" height="15.32"/><rect class="cls-6" x="1049.36" y="773.62" width="114.89" height="15.32"/><rect class="cls-6" x="153.19" y="773.62" width="53.62" height="15.32"/><rect class="cls-7" x="107.23" y="827.23" width="53.62" height="15.32"/><rect class="cls-6" x="191.49" y="827.23" width="298.72" height="15.32"/><rect class="cls-7" x="972.77" y="827.23" width="298.72" height="15.32"/><rect class="cls-6" x="574.47" y="873.19" width="566.81" height="15.32"/><rect class="cls-2" x="520.85" y="827.23" width="413.62" height="15.32"/><rect class="cls-6" x="107.23" y="873.19" width="53.62" height="15.32"/><path class="cls-2" d="M236.56,233.84a4.41,4.41,0,0,1-3.07,7.55,4.67,4.67,0,0,1-3.22-1.26l-19.64-19.92c-.22-.07-.28-.21-.35-.42a.7.7,0,0,0-.22-.14,2.22,2.22,0,0,1-.2-.56.35.35,0,0,1-.21-.28c-.07-.14-.07-.35-.14-.42s-.15-.28-.15-.35v-.49c0-.14-.07-.21-.07-.42s.07-.28.07-.35v-.49c0-.14.15-.21.15-.28s.07-.35.14-.56.06-.07.06-.14c.15-.21.22-.49.35-.63a.14.14,0,0,1,.15-.14,1.23,1.23,0,0,1,.42-.49l19.64-19.92a4.55,4.55,0,0,1,6.29,0,4.42,4.42,0,0,1,0,6.29L220,217.13Z" transform="translate(-102.13 -0.5)"/><path class="cls-2" d="M256.2,236.07l17.13-40.76a3.88,3.88,0,0,1,5.1-2,3.78,3.78,0,0,1,2,5l-17.13,40.83a3.88,3.88,0,0,1-3.57,2.31,3.29,3.29,0,0,1-1.39-.28A3.78,3.78,0,0,1,256.2,236.07Z" transform="translate(-102.13 -0.5)"/><path class="cls-2" d="M315.9,219.65a.06.06,0,0,1-.06.06,4.71,4.71,0,0,1-.5.5L295.7,240.13a4.56,4.56,0,0,1-6.29,0,4.42,4.42,0,0,1,0-6.29L306,217.13l-16.56-16.71a4.42,4.42,0,0,1,0-6.29,4.55,4.55,0,0,1,6.29,0l19.64,19.92a3.89,3.89,0,0,1,.5.49c.06,0,.06.14.06.14a6.31,6.31,0,0,1,.35.63c0,.07.07.07.07.14a3.3,3.3,0,0,0,.21.63c0,.07.07.07.07.21v.49c0,.07.07.28.07.35s-.07.28-.07.35V218c0,.07-.07.07-.07.14a6.44,6.44,0,0,0-.21.63c0,.07-.07.07-.07.21S316,219.37,315.9,219.65Z" transform="translate(-102.13 -0.5)"/></svg>