<?xml version="1.0" encoding="utf-8"?>
<!-- Generator: Adobe Illustrator 23.0.3, SVG Export Plug-In . SVG Version: 6.00 Build 0)  -->
<svg version="1.1" id="Layer_1" xmlns="http://www.w3.org/2000/svg" xmlns:xlink="http://www.w3.org/1999/xlink" x="0px" y="0px"
	 viewBox="0 0 1070.2 506.7" style="enable-background:new 0 0 1070.2 506.7;" xml:space="preserve">
<style type="text/css">
	.st0{opacity:0.4;fill:#EBEBEB;}
	.st1{opacity:0.4;fill:#FFFFFF;stroke:#EBEBEB;stroke-miterlimit:10;}
	.st2{opacity:0.4;fill:#37474F;}
	.st3{opacity:0.4;fill:#C7C7C7;}
	.st4{opacity:0.4;fill:none;stroke:#EBEBEB;stroke-miterlimit:10;}
	.st5{opacity:0.3;fill:none;stroke:#C7FFB4;stroke-width:2;stroke-miterlimit:10;}
	.st6{opacity:0.3;fill:none;stroke:#C7FFB4;stroke-width:3;stroke-miterlimit:10;}
	.st7{opacity:0.3;fill:none;stroke:#C7FFB4;stroke-miterlimit:10;}
	.st8{fill:none;stroke:#C7FFB4;stroke-miterlimit:10;}
	.st9{opacity:0.4;fill:none;stroke:#C7FFB4;stroke-width:3;stroke-miterlimit:10;}
	.st10{opacity:0.6;fill:none;stroke:#C7FFB4;stroke-width:2;stroke-miterlimit:10;}
</style>
<title>editor-background</title>
<path class="st0" d="M297.3,159.4l-13.1,0.3l-6.7,0.1c-2.2,0-4.5,0-6.7,0h-0.4v-0.4l-0.1-11.2v-0.5h0.5l13.2,0.1
	c4.4,0,8.8,0.1,13.2,0.2h0.3v0.3c0,1.9-0.1,3.8-0.1,5.6L297.3,159.4z M297.3,159.4l-0.1-5.7c0-1.9-0.1-3.7-0.1-5.5l0.3,0.3
	c-4.4,0-8.8,0.2-13.2,0.2l-13.2,0.1l0.5-0.5l0,11.2l-0.5-0.4c2.2,0,4.4,0,6.5,0.1l6.6,0.1L297.3,159.4z"/>
<path class="st0" d="M282.5,173.5l-13.1,0.3l-6.7,0.1c-2.2,0-4.5,0-6.7,0.1h-0.4v-0.4l-0.1-11.2v-0.5h0.5l13.2,0.1
	c4.4,0,8.8,0.1,13.2,0.2h0.3v0.3c0,1.9-0.1,3.8-0.1,5.6L282.5,173.5z M282.5,173.5l-0.1-5.7c0-1.9-0.1-3.7-0.1-5.5l0.3,0.3
	c-4.4,0.1-8.8,0.2-13.2,0.2l-13.2,0.1l0.5-0.5l0,11.2l-0.5-0.4c2.2,0,4.4,0,6.5,0.1l6.6,0.1L282.5,173.5z"/>
<path class="st0" d="M312.1,173.5l-13.1,0.3l-6.7,0.1c-2.2,0-4.5,0-6.7,0.1h-0.4v-0.4l-0.1-11.2v-0.5h0.5l13.2,0.1
	c4.4,0,8.8,0.1,13.2,0.2h0.3v0.3c0,1.9-0.1,3.8-0.1,5.6L312.1,173.5z M312.1,173.5l-0.1-5.7c0-1.9-0.1-3.7-0.1-5.5l0.3,0.3
	c-4.4,0.1-8.8,0.2-13.2,0.2l-13.2,0.1l0.5-0.5l0,11.2l-0.5-0.4c2.2,0,4.4,0,6.5,0.1l6.6,0.1L312.1,173.5z"/>
<path class="st0" d="M81.4,233.5l-13.1,0.3l-6.7,0.1c-2.2,0-4.5,0-6.7,0.1h-0.4v-0.4v-11.2v-0.5H55l13.2,0.1c4.4,0,8.8,0.1,13.2,0.2
	h0.3v0.3c0,1.9-0.1,3.8-0.1,5.6L81.4,233.5z M81.4,233.5l-0.1-5.7c0-1.9-0.1-3.7-0.1-5.5l0.3,0.3c-4.4,0.1-8.8,0.2-13.2,0.2
	l-13.2,0.1l0.5-0.5l-0.1,11.2l-0.4-0.4c2.2,0,4.4,0,6.6,0.1l6.6,0.1L81.4,233.5z"/>
<path class="st0" d="M860,170.7l-13.1,0.3l-6.7,0.1c-2.2,0.1-4.5,0-6.7,0.1h-0.4v-0.4l-0.1-11.2V159h0.5l13.2,0.1
	c4.4,0,8.8,0.1,13.2,0.2h0.3v0.3c0,1.9-0.1,3.8-0.1,5.6L860,170.7z M860,170.7l-0.1-5.6c0-1.9-0.1-3.7-0.1-5.5l0.3,0.3
	c-4.4,0.1-8.8,0.2-13.2,0.2l-13.2,0.1l0.5-0.5l0,11.2l-0.5-0.4c2.2,0,4.4,0,6.5,0.1l6.6,0.1L860,170.7z"/>
<path class="st0" d="M1013,62l-13.1,0.3l-6.7,0.1c-2.2,0-4.5,0-6.7,0.1h-0.4V62V50.9v-0.5h0.5l13.2,0.1c4.4,0,8.8,0.1,13.2,0.2h0.3
	v0.3c0,1.9-0.1,3.8-0.1,5.7L1013,62z M1013,62l-0.1-5.7c0-1.9-0.1-3.7-0.1-5.5l0.3,0.3c-4.4,0-8.8,0.2-13.2,0.2l-13.2,0.1l0.5-0.5
	l0,11.2l-0.5-0.4c2.2,0,4.4,0,6.5,0.1l6.6,0.1L1013,62z"/>
<path class="st0" d="M1027.7,76.2l-13.1,0.3l-6.7,0.1c-2.2,0.1-4.5,0-6.7,0.1h-0.4v-0.4l-0.1-11.2v-0.5h0.5l13.2,0.1
	c4.4,0,8.8,0.1,13.2,0.2h0.3V65c0,1.9-0.1,3.8-0.1,5.7L1027.7,76.2z M1027.7,76.2l-0.1-5.7c0-1.9-0.1-3.7-0.1-5.5l0.3,0.3
	c-4.4,0.1-8.8,0.2-13.2,0.2l-13.2,0.1l0.5-0.5v11.2l-0.5-0.4c2.2,0,4.4,0,6.5,0.1l6.6,0.1L1027.7,76.2z"/>
<path class="st0" d="M51.8,50.8L38.7,51l-6.7,0.1c-2.2,0-4.5,0-6.7,0.1h-0.5v-0.4V39.6v-0.5h0.5l13.2,0.1c4.4,0,8.8,0.1,13.2,0.2
	h0.3v0.3c0,1.9-0.1,3.8-0.1,5.7L51.8,50.8z M51.8,50.8l-0.2-5.7c0-1.9-0.1-3.7-0.1-5.5l0.3,0.3C47.4,39.9,43,40,38.6,40l-13.2,0.1
	l0.5-0.5l-0.1,11.2l-0.4-0.4c2.2,0,4.3,0,6.5,0l6.6,0.1L51.8,50.8z"/>
<rect x="82.3" y="41.6" class="st1" width="118.5" height="79.9"/>
<path class="st2" d="M93.7,47.6c0,1.5-1.2,2.7-2.7,2.7c-1.5,0-2.7-1.2-2.7-2.7s1.2-2.7,2.7-2.7S93.7,46.1,93.7,47.6L93.7,47.6z"/>
<path class="st3" d="M104.9,47.6c0,1.5-1.2,2.7-2.7,2.7c-1.5,0-2.7-1.2-2.7-2.7s1.2-2.7,2.7-2.7c0,0,0,0,0,0
	C103.7,44.9,104.9,46.1,104.9,47.6C104.9,47.6,104.9,47.6,104.9,47.6z"/>
<path class="st0" d="M116,47.6c0,1.5-1.2,2.7-2.7,2.7s-2.7-1.2-2.7-2.7s1.2-2.7,2.7-2.7l0,0C114.8,44.9,116,46.1,116,47.6z"/>
<line class="st4" x1="82.3" y1="53.6" x2="200.8" y2="53.6"/>
<path class="st0" d="M182.5,146.9c0-1.3,0.2-4.6,0.2-6c0-6.1-2.2-8.8-7.8-9c-2.7-0.2-4.2-1.7-4.2-4s1.6-3.8,4.2-4
	c5.7-0.3,7.8-2.9,7.8-9.1c0-1.4-0.2-4.7-0.2-6c0-8.1,3.4-13.2,16.3-16.1c2.6-0.6,4.6,1,4.6,3.4c0.1,1.5-0.9,2.9-2.3,3.4
	c-8.1,2.5-9.2,5.1-9.2,10.7c0,1.7,0.2,4.4,0.2,6.2c0,6.5-3.2,9.7-8.7,11.4c5.6,1.8,8.7,4.9,8.7,11.4c0,1.7-0.2,4.5-0.2,6.2
	c0,5.7,1.2,8.2,9.2,10.7c1.4,0.5,2.4,1.9,2.3,3.4c0,2.4-2,4-4.6,3.4C185.9,160.3,182.5,155.1,182.5,146.9z"/>
<path class="st0" d="M231.3,108.9c0,1.3-0.2,4.6-0.2,6c0,6.2,2.3,8.8,7.9,9.1c2.6,0.2,4.2,1.8,4.2,4s-1.6,3.8-4.2,4
	c-5.7,0.2-7.9,2.9-7.9,9c0,1.4,0.2,4.7,0.2,6c0,8.2-3.4,13.3-16.3,16.2c-2.6,0.6-4.6-1-4.6-3.4c-0.1-1.5,0.9-2.9,2.4-3.4
	c8-2.5,9.2-5.1,9.2-10.7c0-1.7-0.2-4.4-0.2-6.2c0-6.5,3.2-9.7,8.7-11.4c-5.6-1.8-8.7-4.9-8.7-11.4c0-1.8,0.2-4.5,0.2-6.2
	c0-5.7-1.2-8.3-9.2-10.8c-1.5-0.5-2.5-1.9-2.4-3.4c0-2.4,2-4,4.6-3.4C227.9,95.7,231.3,100.8,231.3,108.9z"/>
<path class="st0" d="M749.1,43c0-0.6,0.1-2.3,0.1-3c0-3-1.1-4.4-3.9-4.5c-1.3-0.1-2.1-0.9-2.1-2c0-1.1,0.8-1.9,2.1-2
	c2.8-0.1,3.9-1.5,3.9-4.5c0-0.7-0.1-2.4-0.1-3c0-4,1.7-6.6,8.2-8c1.3-0.3,2.3,0.5,2.3,1.7c0,0.8-0.4,1.5-1.2,1.7
	c-4,1.3-4.6,2.5-4.6,5.4c0,0.8,0.1,2.2,0.1,3.1c0,3.2-1.6,4.8-4.3,5.7c2.8,0.9,4.3,2.5,4.3,5.7c0,0.9-0.1,2.2-0.1,3.1
	c0,2.8,0.6,4.1,4.6,5.4c0.7,0.3,1.2,0.9,1.2,1.7c0,1.2-1,2-2.3,1.7C750.8,49.7,749.1,47.1,749.1,43z"/>
<path class="st0" d="M773.5,24c0,0.6-0.1,2.3-0.1,3c0,3.1,1.1,4.4,4,4.5c1.3,0.1,2.1,0.9,2.1,2s-0.8,1.9-2.1,2c-2.8,0.1-4,1.5-4,4.5
	c0,0.7,0.1,2.4,0.1,3c0,4.1-1.7,6.7-8.2,8.1c-1.3,0.3-2.3-0.5-2.3-1.7c0-0.8,0.5-1.5,1.2-1.7c4-1.3,4.6-2.5,4.6-5.4
	c0-0.8-0.1-2.2-0.1-3.1c0-3.3,1.6-4.8,4.3-5.7c-2.8-0.9-4.3-2.5-4.3-5.7c0-0.9,0.1-2.3,0.1-3.1c0-2.8-0.6-4.1-4.6-5.4
	c-0.7-0.2-1.2-0.9-1.2-1.7c0-1.2,1-2,2.3-1.7C771.8,17.4,773.5,20,773.5,24z"/>
<path class="st0" d="M71.1,216.8c1.2-0.7,2.7-0.7,3.9,0c0.3,0.2,0.7,0.4,1,0.6s0.7,0.4,1,0.5c1.3,0.6,2.1,1.8,2.2,3.2l0.2,4.8
	l15.7-0.5l-0.2-4.9c0-1.4,0.8-2.7,2-3.4c0.7-0.4,1.4-0.8,2-1.2c1.2-0.8,2.7-0.9,3.9-0.3l4.2,2.3l7.4-13.8l-4.2-2.3
	c-1.3-0.7-2-2-2-3.4c0-0.8,0-1.5-0.1-2.3c-0.1-1.4,0.5-2.8,1.7-3.5l4.1-2.6l-8.3-13.4l-4.1,2.5c-1.2,0.7-2.7,0.7-3.8,0
	c-0.3-0.2-0.7-0.4-1.1-0.6l-1.1-0.6c-1.3-0.6-2.1-1.8-2.1-3.2l-0.1-4.8l-15.7,0.5l0.2,4.8c0,1.4-0.7,2.7-1.9,3.4
	c-0.7,0.4-1.4,0.8-2.1,1.3c-1.1,0.8-2.6,0.9-3.8,0.2l-4.3-2.3l-7.4,13.9l4.3,2.3c1.3,0.7,2,2,2,3.4c0,0.8,0,1.5,0.1,2.3
	c0.1,1.4-0.5,2.8-1.7,3.5l-4.1,2.6l8.2,13.3L71.1,216.8z M74.3,193.5c2.5-6.7,9.9-10,16.6-7.5s10,9.9,7.5,16.6
	c-2.5,6.7-9.9,10-16.6,7.5c-1.1-0.4-2.1-0.9-3-1.6C74.1,205.1,72.3,199,74.3,193.5z"/>
<path class="st0" d="M149.2,91.7c0.5-0.9,1.4-1.3,2.4-1.3h0.8h0.8c1-0.1,1.9,0.4,2.4,1.3l1.7,2.9l9.6-5.5l-1.7-2.9
	c-0.5-0.9-0.5-1.9,0.1-2.8c0.3-0.5,0.6-0.9,0.8-1.4c0.4-0.9,1.4-1.5,2.4-1.4h3.4v-11h-3.4c-1,0-1.9-0.6-2.3-1.4
	c-0.3-0.5-0.5-1-0.8-1.4c-0.6-0.8-0.6-1.9-0.1-2.8l1.7-2.9l-9.6-5.5l-1.7,3c-0.5,0.8-1.4,1.3-2.4,1.3h-0.8h-0.8
	c-1,0.1-1.9-0.4-2.4-1.3l-1.7-3L138,61l1.7,2.9c0.5,0.9,0.5,1.9-0.1,2.8c-0.3,0.5-0.6,0.9-0.8,1.4c-0.4,0.9-1.3,1.4-2.3,1.4H133v11
	h3.4c1,0,1.9,0.6,2.3,1.4c0.3,0.5,0.5,1,0.8,1.4c0.5,0.8,0.6,1.9,0.1,2.8l-1.7,2.9l9.6,5.5L149.2,91.7z M143.4,75c0-5,4-9,9-9
	s9,4,9,9s-4,9-9,9l0,0C147.4,84,143.4,80,143.4,75z"/>
<path class="st0" d="M996.4,100.8l-5.5-9.6L988,93c-0.9,0.5-1.9,0.5-2.8-0.1c-0.5-0.3-0.9-0.6-1.4-0.8c-0.9-0.4-1.4-1.3-1.5-2.3
	v-3.4h-11v3.4c0,1-0.6,1.9-1.5,2.3c-0.5,0.3-1,0.5-1.4,0.8c-0.8,0.5-1.9,0.6-2.8,0.1l-2.9-1.7l-5.5,9.6l2.9,1.7
	c0.9,0.5,1.3,1.4,1.3,2.4c0,0.3,0,0.5,0,0.8s0,0.5,0,0.8c0.1,1-0.4,1.9-1.3,2.4l-3,1.7l5.5,9.6l2.9-1.7c0.9-0.5,1.9-0.5,2.8,0.1
	c0.5,0.3,0.9,0.6,1.4,0.8c0.9,0.4,1.4,1.3,1.5,2.3v3.4h11v-3.4c0-1,0.6-1.9,1.5-2.3c0.5-0.2,1-0.5,1.4-0.8c0.8-0.6,1.9-0.6,2.8-0.1
	l2.9,1.7l5.5-9.6l-2.9-1.7c-0.8-0.5-1.3-1.4-1.3-2.4c0-0.3,0-0.5,0-0.8s0-0.5,0-0.8c-0.1-1,0.4-1.9,1.3-2.4L996.4,100.8z
	 M985.9,105.8c0,5-4,9-9,9s-9-4-9-9s4-9,9-9C981.8,96.8,985.9,100.8,985.9,105.8L985.9,105.8z"/>
<path class="st0" d="M762.7,421.8l13.1,0.3l6.7,0.1c2.2,0,4.5,0,6.7,0h0.4v-0.5l0.1-11.2v-0.5h-0.5l-13.2,0.1
	c-4.4,0-8.8,0.1-13.2,0.2h-0.3v0.3c0,1.9,0.1,3.8,0.1,5.6L762.7,421.8z M762.7,421.8l0.1-5.7c0-1.9,0.1-3.7,0.1-5.5l-0.3,0.3
	c4.4,0,8.8,0.2,13.2,0.2l13.2,0.1l-0.5-0.5l0,11.2l0.5-0.5c-2.2,0-4.4,0-6.5,0.1l-6.6,0.1L762.7,421.8z"/>
<path class="st0" d="M777.5,435.9l13.1,0.3l6.7,0.1c2.2,0,4.5,0,6.7,0h0.4v-0.4l0.1-11.2v-0.5H804l-13.2,0.1
	c-4.4,0-8.8,0.1-13.2,0.2h-0.3v0.3c0,1.9,0.1,3.8,0.1,5.6L777.5,435.9z M777.5,435.9l0.1-5.7c0-1.9,0.1-3.7,0.1-5.5l-0.3,0.3
	c4.4,0,8.8,0.2,13.2,0.2l13.2,0.1l-0.5-0.5l0,11.2l0.5-0.4c-2.2,0-4.4,0-6.5,0.1l-6.6,0.1L777.5,435.9z"/>
<path class="st0" d="M747.9,435.9l13.1,0.3l6.7,0.1c2.2,0,4.5,0,6.7,0h0.4v-0.4l0.1-11.2v-0.5h-0.5l-13.2,0.1
	c-4.4,0-8.8,0.1-13.2,0.2h-0.3v0.3c0,1.9,0.1,3.8,0.1,5.6L747.9,435.9z M747.9,435.9l0.1-5.7c0-1.9,0.1-3.7,0.1-5.5l-0.3,0.3
	c4.4,0,8.8,0.2,13.2,0.2l13.2,0.1l-0.5-0.5l0,11.2l0.5-0.5c-2.2,0-4.4,0-6.5,0.1l-6.6,0.1L747.9,435.9z"/>
<path class="st0" d="M978.6,495.9l13.1,0.3l6.7,0.1c2.2,0,4.5,0,6.7,0.1h0.4v-0.5v-11.2v-0.5h-0.5l-13.2,0.1
	c-4.4,0-8.8,0.1-13.2,0.2h-0.3v0.3c0,1.9,0.1,3.8,0.1,5.6L978.6,495.9z M978.6,495.9l0.1-5.7c0-1.9,0.1-3.7,0.1-5.5l-0.3,0.3
	c4.4,0.1,8.8,0.2,13.2,0.2l13.2,0.1l-0.5-0.5l0,11.2l0.5-0.4c-2.2,0-4.4,0-6.5,0.1l-6.6,0.1L978.6,495.9z"/>
<path class="st0" d="M200,476.2l13.1,0.3l6.7,0.1c2.2,0.1,4.5,0,6.7,0.1h0.4v-0.5L227,465v-0.5h-0.5l-13.2,0.1
	c-4.4,0-8.8,0.1-13.2,0.2h-0.3v0.3c0,1.9,0.1,3.8,0.1,5.6L200,476.2z M200,476.2l0.1-5.6c0-1.9,0.1-3.7,0.1-5.5l-0.3,0.3
	c4.4,0,8.8,0.2,13.2,0.2l13.2,0.1L226,465l0,11.2l0.5-0.4c-2.2,0-4.4,0-6.5,0.1l-6.6,0.1L200,476.2z"/>
<path class="st0" d="M47,367.5l13.1,0.3l6.7,0.1c2.2,0,4.5,0,6.7,0.1h0.4v-0.4v-11.2v-0.5h-0.5l-13.2,0.1c-4.4,0-8.8,0.1-13.2,0.2
	h-0.3v0.3c0,1.9,0.1,3.8,0.1,5.6L47,367.5z M47,367.5l0.1-5.7c0-1.9,0.1-3.7,0.1-5.5l-0.3,0.3c4.4,0,8.8,0.2,13.2,0.2l13.2,0.1
	l-0.5-0.5l0,11.2l0.5-0.5c-2.2,0-4.4,0-6.5,0.1l-6.6,0.1L47,367.5z"/>
<path class="st0" d="M32.2,381.6l13.1,0.3L52,382c2.2,0,4.5,0,6.7,0.1h0.4v-0.5l0.1-11.2v-0.5h-0.5L45.5,370
	c-4.4,0-8.8,0.1-13.2,0.2H32v0.3c0,1.9,0.1,3.8,0.1,5.6L32.2,381.6z M32.2,381.6l0.1-5.6c0-1.9,0.1-3.7,0.1-5.5l-0.3,0.3
	c4.4,0.1,8.8,0.2,13.2,0.2l13.2,0.1l-0.5-0.5v11.2l0.5-0.5c-2.2,0-4.4,0-6.5,0.1l-6.6,0.1L32.2,381.6z"/>
<path class="st0" d="M1008.1,313.1l13.1,0.3l6.7,0.1c2.2,0,4.5,0,6.7,0.1h0.4v-0.4V302v-0.5h-0.5l-13.2,0.1c-4.4,0-8.8,0.1-13.2,0.2
	h-0.3v0.3c0,1.9,0.1,3.8,0.1,5.7L1008.1,313.1z M1008.1,313.1l0.2-5.6c0-1.9,0.1-3.7,0.1-5.5l-0.3,0.3c4.4,0.1,8.8,0.2,13.2,0.2
	l13.2,0.1l-0.5-0.5l0.1,11.2l0.4-0.4c-2.2,0-4.3,0-6.5,0l-6.6,0.1L1008.1,313.1z"/>
<rect x="859.2" y="304" class="st1" width="118.5" height="79.9"/>
<path class="st2" d="M966.2,310c0,1.5,1.2,2.7,2.7,2.7c1.5,0,2.7-1.2,2.7-2.7c0-1.5-1.2-2.7-2.7-2.7
	C967.5,307.3,966.2,308.5,966.2,310L966.2,310z"/>
<path class="st3" d="M955.1,310c0,1.5,1.2,2.7,2.7,2.7c1.5,0,2.7-1.2,2.7-2.7c0-1.5-1.2-2.7-2.7-2.7c0,0,0,0,0,0
	C956.3,307.3,955.1,308.5,955.1,310C955.1,310,955.1,310,955.1,310z"/>
<path class="st0" d="M944,310c0,1.5,1.2,2.7,2.7,2.7s2.7-1.2,2.7-2.7c0-1.5-1.2-2.7-2.7-2.7l0,0C945.2,307.3,944,308.5,944,310z"/>
<line class="st4" x1="977.7" y1="316" x2="859.2" y2="316"/>
<path class="st0" d="M877.5,409.3c0-1.3-0.2-4.6-0.2-6c0-6.1,2.2-8.8,7.8-9c2.7-0.2,4.2-1.7,4.2-4c0-2.3-1.6-3.8-4.2-4
	c-5.7-0.3-7.8-2.9-7.8-9.1c0-1.4,0.2-4.7,0.2-6c0-8.1-3.4-13.2-16.3-16.1c-2.6-0.6-4.6,1-4.6,3.4c-0.1,1.5,0.9,2.9,2.3,3.4
	c8.1,2.5,9.2,5.1,9.2,10.7c0,1.7-0.2,4.4-0.2,6.2c0,6.5,3.2,9.7,8.7,11.4c-5.6,1.8-8.7,4.9-8.7,11.4c0,1.7,0.2,4.5,0.2,6.2
	c0,5.7-1.2,8.2-9.2,10.7c-1.4,0.5-2.4,1.9-2.3,3.4c0,2.4,2,4,4.6,3.4C874.1,422.7,877.5,417.5,877.5,409.3z"/>
<path class="st0" d="M828.7,371.3c0,1.3,0.2,4.6,0.2,6c0,6.2-2.3,8.8-7.9,9.1c-2.6,0.2-4.2,1.8-4.2,4s1.6,3.8,4.2,4
	c5.7,0.2,7.9,2.9,7.9,9c0,1.4-0.2,4.7-0.2,6c0,8.2,3.4,13.3,16.3,16.2c2.6,0.6,4.6-1,4.6-3.4c0.1-1.5-0.9-2.9-2.4-3.4
	c-8-2.5-9.2-5.1-9.2-10.7c0-1.7,0.2-4.4,0.2-6.2c0-6.5-3.2-9.7-8.7-11.4c5.6-1.8,8.7-4.9,8.7-11.4c0-1.8-0.2-4.5-0.2-6.2
	c0-5.7,1.2-8.3,9.2-10.8c1.5-0.5,2.5-1.9,2.4-3.4c0-2.4-2-4-4.6-3.4C832.1,358,828.7,363.2,828.7,371.3z"/>
<path class="st0" d="M988.9,479.2c-1.2-0.7-2.7-0.7-3.9,0c-0.3,0.2-0.7,0.4-1,0.6c-0.3,0.2-0.7,0.4-1,0.5c-1.3,0.6-2.1,1.8-2.2,3.2
	l-0.2,4.8l-15.7-0.5l0.1-4.9c0-1.4-0.8-2.7-2-3.4c-0.7-0.4-1.4-0.8-2-1.2c-1.2-0.8-2.7-0.9-3.9-0.3l-4.2,2.3l-7.4-13.8l4.2-2.3
	c1.3-0.7,2-2,2-3.4c0-0.8,0-1.5,0.1-2.3c0.1-1.4-0.5-2.8-1.7-3.5l-4.1-2.6l8.3-13.4l4.1,2.5c1.2,0.7,2.7,0.7,3.9,0
	c0.3-0.2,0.7-0.4,1.1-0.6l1.1-0.6c1.3-0.6,2.1-1.8,2.1-3.2l0.1-4.8l15.7,0.5l-0.2,4.8c0,1.4,0.7,2.7,1.9,3.4
	c0.7,0.4,1.4,0.8,2.1,1.3c1.1,0.8,2.6,0.9,3.8,0.2l4.3-2.3l7.4,13.9l-4.3,2.3c-1.3,0.7-2,2-2,3.4c0,0.8,0,1.5-0.1,2.3
	c-0.1,1.4,0.5,2.8,1.7,3.5l4.1,2.6l-8.2,13.3L988.9,479.2z M985.7,455.9c-2.5-6.7-9.9-10-16.6-7.5c-6.7,2.5-10,9.9-7.5,16.6
	s9.9,10,16.6,7.5c1.1-0.4,2.1-0.9,3-1.6C985.8,467.5,987.7,461.4,985.7,455.9z"/>
<path class="st0" d="M910.8,354.1c-0.5-0.9-1.4-1.3-2.4-1.3h-0.8h-0.8c-1-0.1-1.9,0.4-2.4,1.3l-1.7,2.9l-9.5-5.5l1.7-2.9
	c0.5-0.9,0.5-1.9-0.1-2.8c-0.3-0.5-0.6-0.9-0.8-1.4c-0.4-0.9-1.4-1.5-2.4-1.5h-3.4v-11h3.4c1,0,1.9-0.6,2.3-1.4
	c0.3-0.5,0.5-1,0.8-1.4c0.6-0.8,0.6-1.9,0.1-2.8l-1.7-2.9l9.5-5.5l1.7,3c0.5,0.8,1.4,1.3,2.4,1.3h0.8h0.8c1,0.1,1.9-0.4,2.4-1.3
	l1.7-3l9.5,5.5l-1.7,2.9c-0.5,0.9-0.5,1.9,0.1,2.8c0.3,0.5,0.6,0.9,0.8,1.4c0.4,0.9,1.3,1.4,2.3,1.5h3.4v11h-3.4
	c-1,0-1.9,0.6-2.3,1.4c-0.3,0.5-0.5,1-0.8,1.4c-0.5,0.8-0.6,1.9-0.1,2.8l1.7,2.9l-9.5,5.5L910.8,354.1z M916.6,337.4c0-5-4-9-9-9
	s-9,4-9,9c0,5,4,9,9,9l0,0C912.6,346.4,916.6,342.4,916.6,337.4z"/>
<path class="st0" d="M63.6,406.3l5.5-9.6l2.9,1.7c0.9,0.5,1.9,0.5,2.8-0.1c0.5-0.3,0.9-0.6,1.4-0.8c0.9-0.4,1.4-1.3,1.5-2.3v-3.4h11
	v3.4c0,1,0.6,1.9,1.5,2.3c0.5,0.3,1,0.5,1.4,0.8c0.8,0.5,1.9,0.6,2.8,0.1l2.9-1.7l5.5,9.6l-2.9,1.7c-0.9,0.5-1.3,1.4-1.3,2.4
	c0,0.3,0,0.5,0,0.8s0,0.5,0,0.8c-0.1,1,0.4,1.9,1.3,2.4l3,1.7l-5.5,9.6l-2.9-1.7c-0.9-0.5-1.9-0.5-2.8,0.1c-0.5,0.3-0.9,0.6-1.4,0.8
	c-0.9,0.4-1.4,1.3-1.5,2.3v3.4h-11v-3.4c0-1-0.6-1.9-1.5-2.3c-0.5-0.2-1-0.5-1.4-0.8c-0.8-0.6-1.9-0.6-2.8-0.1l-2.9,1.7l-5.5-9.5
	l2.9-1.7c0.8-0.5,1.3-1.4,1.3-2.4c0-0.3,0-0.5,0-0.8s0-0.5,0-0.8c0.1-1-0.4-1.9-1.3-2.4L63.6,406.3z M74.1,411.2c0,5,4,9,9,9
	s9-4,9-9c0-5-4-9-9-9C78.2,402.2,74.1,406.3,74.1,411.2L74.1,411.2z"/>
<g>
	<line class="st5" x1="-26.7" y1="357.5" x2="125.9" y2="242.5"/>
	<line class="st6" x1="-39" y1="381.6" x2="113.6" y2="266.6"/>
	<line class="st5" x1="-98.8" y1="444.6" x2="53.8" y2="329.5"/>
	<line class="st7" x1="-90.6" y1="389" x2="62" y2="274"/>
</g>
<g>
	<line class="st5" x1="1100.2" y1="281.7" x2="947.6" y2="166.7"/>
	<line class="st6" x1="1112.6" y1="305.7" x2="959.9" y2="190.7"/>
	<line class="st5" x1="1172.4" y1="368.7" x2="1019.7" y2="253.7"/>
	<line class="st7" x1="1164.2" y1="313.2" x2="1011.5" y2="198.2"/>
</g>
<circle class="st8" cx="436.5" cy="47.6" r="6"/>
<circle class="st9" cx="687" cy="470.6" r="6"/>
<circle class="st10" cx="63.6" cy="159" r="6"/>
<circle class="st10" cx="971.7" cy="255.7" r="6"/>
<circle class="st8" cx="991.8" cy="416.2" r="6"/>
</svg>
