<?xml version="1.0" encoding="utf-8"?>
<!-- Generator: Adobe Illustrator 23.0.3, SVG Export Plug-In . SVG Version: 6.00 Build 0)  -->
<svg version="1.1" id="Layer_1" xmlns="http://www.w3.org/2000/svg" xmlns:xlink="http://www.w3.org/1999/xlink" x="0px" y="0px"
	 viewBox="0 0 391.6 289.6" style="enable-background:new 0 0 391.6 289.6;" xml:space="preserve">
<style type="text/css">
	.st0{fill:#FFFFFF;}
</style>
<title>scp-logo-green</title>
<path class="st0" d="M97.8,289.6c-16.1,0-28.8-2.1-38.1-6.2s-16-10.3-20-18.6c-4.1-8.3-6.1-19.3-6.1-33.2v-45
	c0-9.2-1.2-16.4-3.5-21.5c-2-4.8-5.8-8.7-10.5-10.8c-4.7-2.1-11.2-3.1-19.6-3.1v-12.7c8.3,0,14.8-1,19.4-3.1
	c4.7-2.1,8.5-6,10.6-10.7c2.4-5,3.6-12.2,3.6-21.6V58c0-13.9,2-25,6.1-33.2S50.4,10.4,59.7,6.2C69.1,2.1,81.8,0,97.8,0h4v12.6
	c-8.2,0-14.3,0.4-18.4,1.3c-3.6,0.7-7,2-10,4c-2.6,1.8-4.7,4.1-6.3,6.9c-1.9,3.6-3.2,7.6-3.8,11.7c-1.1,6.5-1.5,13.1-1.4,19.8v30.2
	c0,10.5-0.9,19.2-2.7,26.2c-1.7,6.8-5,13-9.7,18.2c-4.7,5.1-11,9.4-19.1,12.7v2.8c7.2,2.8,13.7,7.1,19.1,12.8
	c4.8,5.3,8.2,11.7,9.9,18.6c1.9,8.4,2.8,17.1,2.6,25.7v30.2c-0.1,6.6,0.3,13.2,1.4,19.8c0.6,4.1,1.9,8,3.9,11.7
	c1.6,2.7,3.7,5,6.3,6.8c3,2,6.4,3.3,10,4c4.1,0.9,10.2,1.3,18.4,1.3v12.6L97.8,289.6z"/>
<path class="st0" d="M157.9,53l53.3,80.6v9.2l-59.9,82.6h70.5c9,0,15.6-2,19.6-6.1s7.4-13.2,10-27.5h15.5l-3.4,59.2H116v-7.6
	l69.7-95.8L120.4,46.3v-7.6h143.7v54.3h-14.6c-4.2-16.7-8.6-27.5-13.1-32.5s-11-7.5-19.5-7.4H157.9z"/>
<path class="st0" d="M293.8,0c16.1,0,28.8,2.1,38.1,6.2s16,10.3,20,18.6C356,33,358,44.1,358,58v44.9c0,9.3,1.2,16.5,3.6,21.6
	c2.1,4.8,5.8,8.6,10.6,10.7c4.7,2.1,11.1,3.1,19.4,3.1v12.8c-8.4,0-14.9,1-19.6,3.1c-4.7,2.1-8.5,6-10.5,10.8
	c-2.3,5.1-3.5,12.3-3.5,21.5v44.9c0,13.9-2,25-6.1,33.2c-4,8.2-10.7,14.4-20.1,18.6c-9.3,4.1-22,6.2-38.1,6.2h-4v-12.6
	c8.2,0,14.3-0.4,18.4-1.3c3.6-0.7,7-2,10-4c2.6-1.8,4.7-4.1,6.3-6.8c2-3.6,3.3-7.6,3.9-11.7c1.1-6.5,1.5-13.1,1.4-19.8v-30.1
	c0-10.5,0.9-19.2,2.7-26.2c1.7-6.8,5-13,9.7-18.2c4.7-5.1,11-9.4,19.1-12.7v-2.8c-7.2-2.8-13.7-7.1-19-12.8
	c-4.8-5.3-8.2-11.7-9.9-18.6c-1.8-7.1-2.7-15.7-2.6-25.7V56.1c0.1-6.6-0.3-13.2-1.4-19.8c-0.7-4.1-2-8-4-11.6
	c-1.6-2.7-3.7-5-6.3-6.8c-3-2-6.4-3.3-10-4c-4.1-0.9-10.2-1.3-18.4-1.3V0H293.8z"/>
</svg>
