<svg id="Layer_1" data-name="Layer 1" xmlns="http://www.w3.org/2000/svg" viewBox="0 0 985.45 132.64"><defs><style>.cls-1{fill:#22b573;stroke:#22b573;stroke-miterlimit:10;stroke-width:2px;}.cls-2{fill:#92e3a9;}</style></defs><title>scp-logo-full-green</title><path class="cls-1" d="M609.23,367a25.55,25.55,0,0,0,3.29,8.48,12.59,12.59,0,0,0,5.37,4.61,20.63,20.63,0,0,0,8.49,1.5q7.14,0,11-3.73T641.15,367a16.77,16.77,0,0,0-1.59-7.69,17.62,17.62,0,0,0-5.19-5.86,71,71,0,0,0-11-6.41,60.57,60.57,0,0,1-11.3-6.93,23.59,23.59,0,0,1-6.19-7.35,18.72,18.72,0,0,1-2-8.67,21.6,21.6,0,0,1,3.21-11.87,20.66,20.66,0,0,1,9.4-7.78,34.71,34.71,0,0,1,14.19-2.75,71.8,71.8,0,0,1,20.14,2.69v16.48h-6a26,26,0,0,0-3.54-8.37,11.83,11.83,0,0,0-5-4.18,19.7,19.7,0,0,0-7.44-1.19,16.55,16.55,0,0,0-7.11,1.47,11.34,11.34,0,0,0-5,4.42,13.17,13.17,0,0,0-1.83,7.05,15.73,15.73,0,0,0,1.56,7.33,17.15,17.15,0,0,0,4.85,5.55A58.73,58.73,0,0,0,631,338.7,73.62,73.62,0,0,1,643.13,346a25.46,25.46,0,0,1,6.71,7.66,20.19,20.19,0,0,1,2.41,10,26.2,26.2,0,0,1-2,10.84,18.76,18.76,0,0,1-5.58,7.2,22.88,22.88,0,0,1-8.55,4A44.85,44.85,0,0,1,625.22,387a89.53,89.53,0,0,1-22.1-3.24V367Z" transform="translate(-383.14 -281.64)"/><path class="cls-1" d="M664.22,383a21,21,0,0,0,3.38-1.28,5,5,0,0,0,1.71-1.53,7.71,7.71,0,0,0,1.1-3,35.18,35.18,0,0,0,.4-6.29V344.31c0-2.6,0-4.7-.12-6.28a9.5,9.5,0,0,0-.86-3.82,4.62,4.62,0,0,0-2.23-2.13,17.18,17.18,0,0,0-4.24-1.19v-3.24l14.22-.55h3.73v43.64a36.15,36.15,0,0,0,.49,7.3,5.3,5.3,0,0,0,1.86,3.11,12.65,12.65,0,0,0,4.48,1.86v3H664.22Zm17.45-79.29v11.85H670.44V303.72Z" transform="translate(-383.14 -281.64)"/><path class="cls-1" d="M753.7,333.81l-11.3-.42-.55.67a13,13,0,0,1,3,5.16,22,22,0,0,1,1.09,7q0,9.94-6.13,15.35T722.38,367a26.59,26.59,0,0,1-8.72-1.28c-3.1,2.36-4.64,4.68-4.64,6.95a5.57,5.57,0,0,0,.88,3.42,4.94,4.94,0,0,0,2.93,1.65,28.64,28.64,0,0,0,6.2.49h14.65a23.93,23.93,0,0,1,10.55,2,12.48,12.48,0,0,1,5.83,5.4,17.11,17.11,0,0,1,1.74,7.91,16.87,16.87,0,0,1-3.29,10.22,21.33,21.33,0,0,1-9.52,7,38.78,38.78,0,0,1-14.53,2.5,79.28,79.28,0,0,1-11.26-.73,30.16,30.16,0,0,1-8.73-2.47,14.08,14.08,0,0,1-5.61-4.58,12.05,12.05,0,0,1-2-7.11,10.81,10.81,0,0,1,2.57-7,21.84,21.84,0,0,1,7.26-5.52,10.12,10.12,0,0,1-4.52-3.42,8.73,8.73,0,0,1-1.65-5.31,11.12,11.12,0,0,1,2-6.38,30.55,30.55,0,0,1,6.89-6.62,17.07,17.07,0,0,1-6.68-7,21.28,21.28,0,0,1-2.29-10,22.08,22.08,0,0,1,1.74-9.12,17.35,17.35,0,0,1,4.82-6.41,20.7,20.7,0,0,1,7.3-3.79,31.85,31.85,0,0,1,9.09-1.25,37.48,37.48,0,0,1,8.73,1H753.7ZM712.86,387a17.54,17.54,0,0,0-4.67,4.91,11.29,11.29,0,0,0-1.55,5.89,8.74,8.74,0,0,0,4.36,8.09q4.37,2.6,13.34,2.59a27.28,27.28,0,0,0,9.43-1.46,12.92,12.92,0,0,0,6-4.22,10.33,10.33,0,0,0,2.07-6.4,13.21,13.21,0,0,0-.42-3.33,6.81,6.81,0,0,0-1.62-2.9,8.1,8.1,0,0,0-3.39-2,17.78,17.78,0,0,0-5.73-.77h-9.1C718.29,387.34,715.39,387.22,712.86,387Zm-1.52-40.77q0,7.62,3.11,11.77c2.07,2.77,5.07,4.16,9,4.16a11,11,0,0,0,5.31-1.19,9.84,9.84,0,0,0,3.57-3.27,14.67,14.67,0,0,0,2-4.79,25.17,25.17,0,0,0,.64-5.71,23,23,0,0,0-1.53-9,11.23,11.23,0,0,0-4.15-5.28,11,11,0,0,0-6-1.68q-5.81,0-8.85,3.85T711.34,346.21Z" transform="translate(-383.14 -281.64)"/><path class="cls-1" d="M777.19,337.05l.86.24a73.89,73.89,0,0,1,6-5.52,27.87,27.87,0,0,1,4.55-3,20.1,20.1,0,0,1,4.12-1.62,16.15,16.15,0,0,1,3.93-.49,16.47,16.47,0,0,1,10,2.81q3.85,2.81,5.31,8.61a82.16,82.16,0,0,1,7.42-6.84,24.55,24.55,0,0,1,5.8-3.39,17,17,0,0,1,6.38-1.19,18.89,18.89,0,0,1,7,1.19,12.42,12.42,0,0,1,5,3.67,15.56,15.56,0,0,1,3,6.19,42.24,42.24,0,0,1,1,10v23a45.2,45.2,0,0,0,.3,6.41,8.05,8.05,0,0,0,.89,2.75,4.85,4.85,0,0,0,1.74,1.68,16.58,16.58,0,0,0,3.9,1.43v3h-24v-3a22.43,22.43,0,0,0,3.41-1.28,5.1,5.1,0,0,0,1.74-1.53,7.76,7.76,0,0,0,1.1-3A34.73,34.73,0,0,0,837,371V355q0-5.17-.28-8.57a28.08,28.08,0,0,0-.85-5.4,10.93,10.93,0,0,0-1.4-3.18,10.26,10.26,0,0,0-1.87-2,7.67,7.67,0,0,0-2.44-1.34,11.43,11.43,0,0,0-3.72-.49,10.71,10.71,0,0,0-4.55,1,18.38,18.38,0,0,0-4.58,3.3,15.9,15.9,0,0,0-3.57,4.67,13,13,0,0,0-1.09,5.52v22.28a45.2,45.2,0,0,0,.3,6.41,8.05,8.05,0,0,0,.89,2.75,4.9,4.9,0,0,0,1.73,1.68,16.88,16.88,0,0,0,3.91,1.43v3h-24v-3a22.22,22.22,0,0,0,3.42-1.28,5.1,5.1,0,0,0,1.74-1.53,7.76,7.76,0,0,0,1.1-3,35.72,35.72,0,0,0,.4-6.19V355q0-5.43-.31-8.85a27.88,27.88,0,0,0-.94-5.49,10.53,10.53,0,0,0-1.65-3.36,8.8,8.8,0,0,0-2-2,7.82,7.82,0,0,0-2.44-1,13.84,13.84,0,0,0-3.17-.33,10,10,0,0,0-4.7,1.13,20.27,20.27,0,0,0-4.49,3.26,16.18,16.18,0,0,0-3.45,4.46,11.07,11.07,0,0,0-1.16,5v22.89c0,2.32.07,4.09.19,5.31a11.21,11.21,0,0,0,.58,2.87,5.06,5.06,0,0,0,1,1.68,6.59,6.59,0,0,0,1.74,1.22A18.65,18.65,0,0,0,784.7,383v3H760.78v-3a21.34,21.34,0,0,0,3.32-1.28,5.5,5.5,0,0,0,1.74-1.53,7.12,7.12,0,0,0,1.1-3,39.11,39.11,0,0,0,.37-6.29V344.31c0-2.6,0-4.7-.13-6.28a9.51,9.51,0,0,0-.85-3.82,4.62,4.62,0,0,0-2.23-2.13,17.31,17.31,0,0,0-4.24-1.19v-3.24l14.28-.55h3.73Z" transform="translate(-383.14 -281.64)"/><path class="cls-1" d="M900,377.27l-.92-.24a37.47,37.47,0,0,1-10,7.69,22.56,22.56,0,0,1-9.92,2.26,17.82,17.82,0,0,1-8.18-1.8,12.81,12.81,0,0,1-5.43-5.07,14.79,14.79,0,0,1-1.89-7.54q0-8.91,8.82-13.76T899,353.16v-4a32.85,32.85,0,0,0-1.22-10,9.86,9.86,0,0,0-3.85-5.38,12.79,12.79,0,0,0-7-1.7,11.32,11.32,0,0,0-7.66,2.5,15.35,15.35,0,0,0-4.36,7.51h-8v-7.94a87.31,87.31,0,0,1,9.77-4.48,56,56,0,0,1,7.81-2.26,38.36,38.36,0,0,1,7.94-.83,20.79,20.79,0,0,1,9.7,1.93,12.17,12.17,0,0,1,5.49,5.89q1.85,4,1.84,12v21.24q0,4.51.06,6.38a22.56,22.56,0,0,0,.36,3.45,7.29,7.29,0,0,0,.92,2.53,5.1,5.1,0,0,0,1.8,1.62,18.64,18.64,0,0,0,3.88,1.4v3H899.69Zm-1-19.1q-12.39.12-18.56,3.29t-6.16,9.59a9.49,9.49,0,0,0,1.4,5.49,7.29,7.29,0,0,0,3.54,2.78,15.12,15.12,0,0,0,5.07.76,14.5,14.5,0,0,0,7.54-2,15.11,15.11,0,0,0,5.28-5.13,11.83,11.83,0,0,0,1.89-6.17Z" transform="translate(-383.14 -281.64)"/><path class="cls-1" d="M983.43,304.46v16.9h-6a26.89,26.89,0,0,0-3.72-8.45,13.2,13.2,0,0,0-5.25-4.49,17.64,17.64,0,0,0-7.21-1.34,16.85,16.85,0,0,0-11.2,4.18q-4.9,4.19-7.72,12.58t-2.8,20.29a77.89,77.89,0,0,0,2.32,20.42q2.31,8.44,6.83,12.75a15.5,15.5,0,0,0,11.11,4.31,19.92,19.92,0,0,0,8.18-1.44,13,13,0,0,0,5.34-4.55,35.58,35.58,0,0,0,4.12-9.15h6v17.45a87.47,87.47,0,0,1-11.75,2.29,105.05,105.05,0,0,1-13.21.77Q943,387,935,376.48t-7.93-31.31q0-13.07,4.12-22.89a33.18,33.18,0,0,1,12.11-15.2q8-5.37,19.11-5.37a74.35,74.35,0,0,1,21,2.75Z" transform="translate(-383.14 -281.64)"/><path class="cls-1" d="M1022.62,387q-12.71,0-19.38-7.48t-6.69-22.13q0-10.06,3.51-17a23.57,23.57,0,0,1,9.62-10.35,28.15,28.15,0,0,1,13.91-3.39q13.06,0,19.78,7.6t6.71,21.82q0,10.14-3.36,17.09a22.9,22.9,0,0,1-9.52,10.41A29.39,29.39,0,0,1,1022.62,387Zm-14.53-30.89q0,12.59,4,19.32t11.44,6.74a11.94,11.94,0,0,0,7-2,14.92,14.92,0,0,0,4.67-5.34,26.18,26.18,0,0,0,2.59-7.78,52.21,52.21,0,0,0,.8-9.25,47.59,47.59,0,0,0-2-14.89q-2-5.93-5.4-8.7a12.05,12.05,0,0,0-7.81-2.78,12.53,12.53,0,0,0-11.32,6.41Q1008.09,344.26,1008.09,356.09Z" transform="translate(-383.14 -281.64)"/><path class="cls-1" d="M1103.61,319.65c0-3.9,0-6.63-.09-8.17a20.39,20.39,0,0,0-.49-3.94,6.69,6.69,0,0,0-1.1-2.53,5,5,0,0,0-1.89-1.47,20.47,20.47,0,0,0-4.3-1.1v-3.17l14.77-.61h3.6v70.68q0,4.76.18,6.8a9.37,9.37,0,0,0,.79,3.27,4.77,4.77,0,0,0,1.93,2,16.58,16.58,0,0,0,4.61,1.44V386l-14.41.61h-3.66l.73-10-.91-.24a49.92,49.92,0,0,1-6.69,6.13,26.59,26.59,0,0,1-6,3.27,19.25,19.25,0,0,1-6.87,1.22q-10,0-15.44-7.6t-5.43-21.94q0-10,3.54-17A24.05,24.05,0,0,1,1076,330a26.87,26.87,0,0,1,13.52-3.42,39,39,0,0,1,7.32.64,34.4,34.4,0,0,1,6.78,2.11Zm0,30.16a53.18,53.18,0,0,0-.43-7.63,15.49,15.49,0,0,0-1.43-4.83,9.86,9.86,0,0,0-2.72-3.29,11,11,0,0,0-3.75-1.95,17.23,17.23,0,0,0-4.91-.61,13.35,13.35,0,0,0-11.91,6.25q-4.08,6.25-4.09,18t3.36,17.82a10.93,10.93,0,0,0,10.19,6.1,18,18,0,0,0,4.46-.46,13.37,13.37,0,0,0,3.48-1.46,17.71,17.71,0,0,0,3.48-2.78,15.77,15.77,0,0,0,2.59-3.23,12.27,12.27,0,0,0,1.25-3.36,22.47,22.47,0,0,0,.43-4.88Z" transform="translate(-383.14 -281.64)"/><path class="cls-1" d="M1180.51,375.62a50.51,50.51,0,0,1-7.17,6.41,27,27,0,0,1-7.17,3.63,26.72,26.72,0,0,1-8.61,1.32q-12.57,0-19-7.54t-6.41-22.25a37.35,37.35,0,0,1,3.27-16.05,24.68,24.68,0,0,1,9.31-10.74,25.59,25.59,0,0,1,13.91-3.79,25.33,25.33,0,0,1,10.5,2,17.64,17.64,0,0,1,6.93,5.34,24.91,24.91,0,0,1,4,8.54,56.64,56.64,0,0,1,1.61,13.46h-38.45V357a39,39,0,0,0,1.62,12.11,15.29,15.29,0,0,0,5.31,7.69,15.52,15.52,0,0,0,9.61,2.78,21.13,21.13,0,0,0,9-1.86,26.77,26.77,0,0,0,8-6.07Zm-10.25-24.78a46,46,0,0,0-1.65-10.77,13.44,13.44,0,0,0-3.84-6.41,9.91,9.91,0,0,0-6.72-2.23,11.89,11.89,0,0,0-10,5q-3.75,5-4.42,14.37Z" transform="translate(-383.14 -281.64)"/><path class="cls-1" d="M1212.74,370.56a32.33,32.33,0,0,0,.4,5.74,9.11,9.11,0,0,0,1.22,3.38,5.59,5.59,0,0,0,2.23,2A21.15,21.15,0,0,0,1221,383v3h-26.79v-3q3.78-1,5.06-2.17a5.82,5.82,0,0,0,1.68-3.38,41.86,41.86,0,0,0,.4-6.72V318a42.47,42.47,0,0,0-.31-6.14,7.57,7.57,0,0,0-1-3,5.11,5.11,0,0,0-1.86-1.71,20.43,20.43,0,0,0-4-1.43v-3h30.27q14.28,0,21.27,5.46t7,16.63a28.37,28.37,0,0,1-2.2,11.42,21.38,21.38,0,0,1-6.22,8.3,24.8,24.8,0,0,1-9.53,4.63,46.16,46.16,0,0,1-11.53,1.41q-6.78,0-10.5-.25Zm0-25.33h7.08a30.81,30.81,0,0,0,11.38-1.8,13.5,13.5,0,0,0,6.87-6q2.39-4.18,2.38-11.08a23.86,23.86,0,0,0-1.4-8.76,13.74,13.74,0,0,0-9.77-8.67,29.67,29.67,0,0,0-7.45-.88q-6,0-9.09.24Z" transform="translate(-383.14 -281.64)"/><path class="cls-1" d="M1280.19,337.78l.85.19a45.61,45.61,0,0,1,6.23-6.44,22.49,22.49,0,0,1,6.19-3.64,21,21,0,0,1,7.54-1.28,49.91,49.91,0,0,1,6.41.37v14h-6.9a14.24,14.24,0,0,0-3.11-4.79,6.47,6.47,0,0,0-4.52-1.5,8.52,8.52,0,0,0-4.36,1.28,16.22,16.22,0,0,0-4.18,3.73,15.55,15.55,0,0,0-2.78,4.57,15.1,15.1,0,0,0-.77,5.07v21.36a28.93,28.93,0,0,0,.68,7.66,5.4,5.4,0,0,0,2.22,3.08,13.58,13.58,0,0,0,4.67,1.53v3h-24.59v-3a21.34,21.34,0,0,0,3.32-1.28,5.5,5.5,0,0,0,1.74-1.53,7.12,7.12,0,0,0,1.1-3,38,38,0,0,0,.37-6.29V344.31c0-2.6,0-4.7-.12-6.28a9.67,9.67,0,0,0-.86-3.82,4.62,4.62,0,0,0-2.23-2.13,17.18,17.18,0,0,0-4.24-1.19v-3.18l14.28-.61h3.73Z" transform="translate(-383.14 -281.64)"/><path class="cls-1" d="M1340.12,387q-12.69,0-19.38-7.48t-6.68-22.13q0-10.06,3.51-17a23.55,23.55,0,0,1,9.61-10.35,28.19,28.19,0,0,1,13.92-3.39q13.05,0,19.77,7.6t6.72,21.82q0,10.14-3.36,17.09a23,23,0,0,1-9.52,10.41A29.4,29.4,0,0,1,1340.12,387Zm-14.53-30.89q0,12.59,4,19.32t11.45,6.74a11.93,11.93,0,0,0,7-2,14.82,14.82,0,0,0,4.67-5.34,26.18,26.18,0,0,0,2.6-7.78,52.22,52.22,0,0,0,.79-9.25,47.62,47.62,0,0,0-2-14.89c-1.32-4-3.13-6.85-5.4-8.7a12.08,12.08,0,0,0-7.82-2.78,12.55,12.55,0,0,0-11.32,6.41Q1325.6,344.26,1325.59,356.09Z" transform="translate(-383.14 -281.64)"/><path class="cls-2" d="M452.36,304.88l23.39,35.33v4l-26.26,36.21H480.4c4,0,6.82-.88,8.6-2.65s3.23-5.8,4.38-12.07h6.82l-1.5,26H434v-3.35l30.55-42-28.64-44.42v-3.34h63v23.8h-6.41q-2.8-11-5.77-14.25t-8.55-3.26Z" transform="translate(-383.14 -281.64)"/><path class="cls-2" d="M426,408.62q-10.57,0-16.71-2.72a17,17,0,0,1-8.77-8.14q-2.67-5.43-2.67-14.57V363.46a23.54,23.54,0,0,0-1.53-9.45,9,9,0,0,0-4.61-4.73,21.49,21.49,0,0,0-8.59-1.37v-5.58a21.45,21.45,0,0,0,8.52-1.36,9.15,9.15,0,0,0,4.63-4.7c1-2.21,1.58-5.37,1.58-9.46V307.08q0-9.13,2.66-14.56a17,17,0,0,1,8.8-8.15q6.14-2.73,16.7-2.73h1.76v5.53a41.21,41.21,0,0,0-8.08.58,11.81,11.81,0,0,0-4.39,1.75,9.4,9.4,0,0,0-2.74,3,15.6,15.6,0,0,0-1.68,5.11,49.21,49.21,0,0,0-.62,8.66v13.23A47,47,0,0,1,409.09,331a18.75,18.75,0,0,1-4.26,8,23,23,0,0,1-8.39,5.56v1.23a22.66,22.66,0,0,1,8.35,5.6,18.48,18.48,0,0,1,4.33,8.15,47,47,0,0,1,1.16,11.28V384a49.28,49.28,0,0,0,.62,8.66,15.64,15.64,0,0,0,1.7,5.11,9.43,9.43,0,0,0,2.76,3,11.81,11.81,0,0,0,4.39,1.75,41.88,41.88,0,0,0,8.06.57v5.52Z" transform="translate(-383.14 -281.64)"/><path class="cls-2" d="M512,281.64q10.57,0,16.71,2.73a16.93,16.93,0,0,1,8.77,8.14q2.68,5.42,2.68,14.57v19.7q0,6.15,1.57,9.48a9.19,9.19,0,0,0,4.64,4.71,21.48,21.48,0,0,0,8.52,1.36v5.6a21.69,21.69,0,0,0-8.59,1.36,9,9,0,0,0-4.61,4.74q-1.53,3.38-1.53,9.44v19.71q0,9.15-2.66,14.56a17.08,17.08,0,0,1-8.8,8.15q-6.13,2.73-16.7,2.73h-1.76v-5.53a41.21,41.21,0,0,0,8.08-.58,12,12,0,0,0,4.39-1.75,9.43,9.43,0,0,0,2.76-3,15.87,15.87,0,0,0,1.7-5.11,49.28,49.28,0,0,0,.62-8.66V370.77A46.48,46.48,0,0,1,529,359.28a18.75,18.75,0,0,1,4.26-8,22.85,22.85,0,0,1,8.39-5.55v-1.23a22.68,22.68,0,0,1-8.33-5.59,18.48,18.48,0,0,1-4.33-8.15,47.11,47.11,0,0,1-1.16-11.29V306.26a49.21,49.21,0,0,0-.61-8.66,16.12,16.12,0,0,0-1.76-5.09,9.32,9.32,0,0,0-2.76-3,12,12,0,0,0-4.38-1.76,42.26,42.26,0,0,0-8.08-.57v-5.54Z" transform="translate(-383.14 -281.64)"/></svg>