<?xml version="1.0" encoding="utf-8"?>
<!-- Generator: Adobe Illustrator 23.0.3, SVG Export Plug-In . SVG Version: 6.00 Build 0)  -->
<svg version="1.1" id="Layer_1" xmlns="http://www.w3.org/2000/svg" xmlns:xlink="http://www.w3.org/1999/xlink" x="0px" y="0px"
	 viewBox="0 0 985.5 132.6" style="enable-background:new 0 0 985.5 132.6;" xml:space="preserve">
<style type="text/css">
	.st0{fill:#FFFFFF;stroke:#FFFFFF;stroke-width:2;stroke-miterlimit:10;}
</style>
<title>scp-logo-full-green</title>
<path class="st0" d="M226.1,85.4c0.6,3,1.7,5.9,3.3,8.5c1.3,2,3.2,3.6,5.4,4.6c2.7,1.1,5.6,1.6,8.5,1.5c4.8,0,8.4-1.2,11-3.7
	c2.6-2.5,3.8-6.1,3.8-10.9c0.1-2.7-0.5-5.3-1.6-7.7c-1.3-2.3-3-4.3-5.2-5.9c-3.5-2.5-7.1-4.6-11-6.4c-4-1.9-7.8-4.2-11.3-6.9
	c-2.5-2-4.7-4.5-6.2-7.4c-1.4-2.7-2-5.7-2-8.7c-0.1-4.2,1-8.3,3.2-11.9c2.3-3.5,5.6-6.2,9.4-7.8c4.5-1.9,9.3-2.8,14.2-2.8
	c6.8-0.1,13.6,0.8,20.1,2.7v16.5h-6c-0.7-3-1.9-5.8-3.5-8.4c-1.2-1.8-3-3.3-5-4.2c-2.4-0.9-4.9-1.3-7.4-1.2c-2.4,0-4.9,0.5-7.1,1.5
	c-2.1,0.9-3.8,2.5-5,4.4c-1.3,2.1-1.9,4.6-1.8,7c-0.1,2.5,0.5,5,1.6,7.3c1.2,2.2,2.9,4.1,4.8,5.5c3,2.2,6.3,4.2,9.7,5.8
	c4.3,2,8.3,4.5,12.1,7.3c2.7,2.1,5,4.7,6.7,7.7c1.7,3.1,2.5,6.5,2.4,10c0.1,3.7-0.6,7.4-2,10.8c-1.2,2.8-3.2,5.3-5.6,7.2
	c-2.5,1.9-5.5,3.3-8.5,4c-3.6,0.9-7.2,1.3-10.9,1.3c-7.5-0.2-14.9-1.2-22.1-3.2V85.4H226.1z"/>
<path class="st0" d="M281.1,101.4c1.2-0.3,2.3-0.8,3.4-1.3c0.7-0.4,1.3-0.9,1.7-1.5c0.6-0.9,0.9-1.9,1.1-3c0.3-2.1,0.5-4.2,0.4-6.3
	V62.7c0-2.6,0-4.7-0.1-6.3c0-1.3-0.3-2.6-0.9-3.8c-0.5-0.9-1.3-1.7-2.2-2.1c-1.4-0.6-2.8-1-4.2-1.2V46l14.2-0.5h3.7v43.6
	c-0.1,2.4,0.1,4.9,0.5,7.3c0.2,1.2,0.9,2.3,1.9,3.1c1.4,0.9,2.9,1.5,4.5,1.9v3h-23.9V101.4z M298.5,22.1v11.9h-11.2V22.1L298.5,22.1
	z"/>
<path class="st0" d="M370.6,52.2l-11.3-0.4l-0.5,0.7c1.4,1.5,2.4,3.2,3,5.2c0.7,2.3,1.1,4.6,1.1,7c0,6.6-2,11.7-6.1,15.4
	s-9.9,5.4-17.4,5.4c-3,0.1-5.9-0.4-8.7-1.3c-3.1,2.4-4.6,4.7-4.6,7c-0.1,1.2,0.2,2.4,0.9,3.4c0.8,0.9,1.8,1.5,2.9,1.6
	c2,0.4,4.1,0.6,6.2,0.5h14.7c3.6-0.1,7.2,0.5,10.5,2c2.5,1.1,4.5,3,5.8,5.4c1.2,2.5,1.8,5.2,1.7,7.9c0,3.7-1.1,7.3-3.3,10.2
	c-2.5,3.2-5.8,5.6-9.5,7c-4.6,1.8-9.6,2.6-14.5,2.5c-3.8,0-7.5-0.2-11.3-0.7c-3-0.4-6-1.2-8.7-2.5c-2.2-1-4.2-2.6-5.6-4.6
	c-1.4-2.1-2.1-4.6-2-7.1c0-2.6,0.9-5,2.6-7c2-2.3,4.5-4.2,7.3-5.5c-1.8-0.7-3.4-1.9-4.5-3.4c-1.1-1.5-1.7-3.4-1.7-5.3
	c0-2.3,0.7-4.5,2-6.4c1.9-2.6,4.3-4.8,6.9-6.6c-2.9-1.6-5.2-4.1-6.7-7c-1.6-3.1-2.4-6.5-2.3-10c-0.1-3.1,0.5-6.2,1.7-9.1
	c1.1-2.5,2.7-4.7,4.8-6.4c2.2-1.7,4.6-3,7.3-3.8c3-0.9,6-1.3,9.1-1.3c2.9,0,5.9,0.3,8.7,1h21.6V52.2z M329.7,105.4
	c-1.9,1.3-3.4,3-4.7,4.9c-1,1.8-1.6,3.8-1.5,5.9c-0.2,3.3,1.5,6.4,4.4,8.1c2.9,1.7,7.4,2.6,13.3,2.6c3.2,0.1,6.4-0.4,9.4-1.5
	c2.4-0.8,4.4-2.3,6-4.2c1.4-1.8,2.1-4.1,2.1-6.4c0-1.1-0.1-2.2-0.4-3.3c-0.3-1.1-0.8-2.1-1.6-2.9c-0.9-0.9-2.1-1.6-3.4-2
	c-1.9-0.6-3.8-0.8-5.7-0.8h-9.1C335.1,105.7,332.3,105.6,329.7,105.4z M328.2,64.6c0,5.1,1,9,3.1,11.8c2.1,2.8,5.1,4.2,9,4.2
	c1.8,0.1,3.7-0.4,5.3-1.2c1.4-0.8,2.7-1.9,3.6-3.3c0.9-1.5,1.6-3.1,2-4.8c0.4-1.9,0.6-3.8,0.6-5.7c0.1-3.1-0.4-6.1-1.5-9
	c-0.8-2.1-2.3-4-4.2-5.3c-1.8-1.1-3.9-1.7-6-1.7c-3.9,0-6.8,1.3-8.8,3.9S328.2,59.7,328.2,64.6L328.2,64.6z"/>
<path class="st0" d="M394,55.4l0.9,0.2c1.9-1.9,3.9-3.8,6-5.5c1.4-1.1,2.9-2.2,4.5-3c1.3-0.7,2.7-1.2,4.1-1.6
	c1.3-0.3,2.6-0.5,3.9-0.5c3.5-0.2,7.1,0.8,10,2.8c2.6,1.9,4.3,4.7,5.3,8.6c2.3-2.4,4.8-4.7,7.4-6.8c1.8-1.4,3.7-2.5,5.8-3.4
	c2-0.8,4.2-1.2,6.4-1.2c2.4,0,4.8,0.4,7,1.2c2,0.8,3.7,2,5,3.7c1.4,1.8,2.5,3.9,3,6.2c0.7,3.3,1.1,6.6,1,10v23
	c-0.1,2.1,0,4.3,0.3,6.4c0.1,1,0.4,1.9,0.9,2.8c0.4,0.7,1,1.3,1.7,1.7c1.2,0.6,2.5,1.1,3.9,1.4v3h-24v-3c1.2-0.3,2.3-0.8,3.4-1.3
	c0.7-0.4,1.3-0.9,1.7-1.5c0.6-0.9,0.9-1.9,1.1-3c0.3-2,0.4-4.1,0.4-6.2v-16c0-3.4-0.1-6.3-0.3-8.6c-0.1-1.8-0.4-3.6-0.8-5.4
	c-0.3-1.1-0.8-2.2-1.4-3.2c-0.5-0.7-1.2-1.4-1.9-2c-0.7-0.6-1.6-1-2.4-1.3c-1.2-0.4-2.5-0.5-3.7-0.5c-1.6,0-3.1,0.3-4.5,1
	c-1.7,0.9-3.2,2-4.6,3.3c-1.5,1.3-2.7,2.9-3.6,4.7c-0.8,1.7-1.1,3.6-1.1,5.5v22.3c-0.1,2.1,0,4.3,0.3,6.4c0.1,1,0.4,1.9,0.9,2.8
	c0.4,0.7,1,1.3,1.7,1.7c1.2,0.6,2.6,1.1,3.9,1.4v3h-24v-3c1.2-0.3,2.3-0.8,3.4-1.3c0.7-0.4,1.3-0.9,1.7-1.5c0.6-0.9,0.9-1.9,1.1-3
	c0.3-2,0.4-4.1,0.4-6.2V73.4c0-3.6-0.1-6.6-0.3-8.9c-0.1-1.9-0.4-3.7-0.9-5.5c-0.3-1.2-0.9-2.3-1.7-3.4c-0.6-0.8-1.2-1.4-2-2
	c-0.8-0.5-1.6-0.8-2.4-1c-1-0.2-2.1-0.3-3.2-0.3c-1.6,0-3.2,0.4-4.7,1.1c-1.6,0.9-3.1,2-4.5,3.3c-1.4,1.3-2.6,2.8-3.5,4.5
	c-0.8,1.6-1.2,3.3-1.2,5v22.9c0,2.3,0.1,4.1,0.2,5.3c0.1,1,0.3,1.9,0.6,2.9c0.2,0.6,0.6,1.2,1,1.7c0.5,0.5,1.1,0.9,1.7,1.2
	c1.1,0.5,2.2,0.9,3.4,1.2v3h-23.9v-3c1.1-0.3,2.3-0.8,3.3-1.3c0.7-0.4,1.3-0.9,1.7-1.5c0.6-0.9,1-1.9,1.1-3c0.3-2.1,0.4-4.2,0.4-6.3
	V62.7c0-2.6,0-4.7-0.1-6.3c0-1.3-0.3-2.6-0.8-3.8c-0.5-0.9-1.3-1.7-2.2-2.1c-1.4-0.6-2.8-1-4.2-1.2V46l14.3-0.5h3.7L394,55.4z"/>
<path class="st0" d="M516.9,95.6l-0.9-0.2c-2.9,3.1-6.3,5.7-10,7.7c-3.1,1.5-6.5,2.3-9.9,2.3c-2.8,0.1-5.6-0.6-8.2-1.8
	c-2.3-1.1-4.2-2.9-5.4-5.1c-1.3-2.3-1.9-4.9-1.9-7.5c0-5.9,2.9-10.5,8.8-13.8s14.7-5.1,26.5-5.6v-4c0.1-3.4-0.3-6.7-1.2-10
	c-0.6-2.2-2-4.1-3.8-5.4c-2.1-1.2-4.6-1.8-7-1.7c-2.8-0.1-5.5,0.8-7.7,2.5c-2.1,2-3.7,4.6-4.4,7.5h-8v-7.9c3.2-1.7,6.4-3.2,9.8-4.5
	c2.5-0.9,5.2-1.7,7.8-2.3c2.6-0.6,5.3-0.8,7.9-0.8c3.3-0.1,6.7,0.5,9.7,1.9c2.4,1.3,4.4,3.4,5.5,5.9c1.2,2.7,1.8,6.7,1.8,12V86
	c0,3,0,5.1,0.1,6.4c0,1.2,0.2,2.3,0.4,3.5c0.1,0.9,0.5,1.8,0.9,2.5c0.5,0.7,1.1,1.2,1.8,1.6c1.2,0.6,2.5,1.1,3.9,1.4v3h-16.8
	L516.9,95.6z M515.9,76.5c-8.3,0.1-14.4,1.2-18.6,3.3c-4.1,2.1-6.2,5.3-6.2,9.6c-0.1,1.9,0.4,3.8,1.4,5.5c0.9,1.3,2.1,2.2,3.5,2.8
	c1.6,0.5,3.3,0.8,5.1,0.8c2.6,0,5.3-0.7,7.5-2c2.2-1.2,4-3,5.3-5.1c1.2-1.8,1.8-4,1.9-6.2L515.9,76.5z"/>
<path class="st0" d="M600.3,22.8v16.9h-6c-0.7-3-2-5.9-3.7-8.5c-1.3-1.9-3.1-3.5-5.3-4.5c-2.3-0.9-4.7-1.4-7.2-1.3
	c-4.1,0-8.1,1.5-11.2,4.2c-3.3,2.8-5.8,7-7.7,12.6c-1.9,5.6-2.8,12.4-2.8,20.3c-0.1,6.9,0.6,13.7,2.3,20.4c1.5,5.6,3.8,9.9,6.8,12.8
	c3,2.9,7,4.4,11.1,4.3c2.8,0.1,5.6-0.4,8.2-1.4c2.2-1,4-2.6,5.3-4.5c1.8-2.8,3.2-5.9,4.1-9.1h6v17.5c-3.9,1-7.8,1.8-11.8,2.3
	c-4.4,0.5-8.8,0.8-13.2,0.8c-10.3,0-18.1-3.5-23.5-10.5c-5.3-7-8-17.4-7.9-31.3c0-8.7,1.4-16.3,4.1-22.9c2.4-6.2,6.6-11.5,12.1-15.2
	c5.3-3.6,11.7-5.4,19.1-5.4C586.4,20,593.4,20.9,600.3,22.8L600.3,22.8z"/>
<path class="st0" d="M639.5,105.4c-8.5,0-14.9-2.5-19.4-7.5c-4.4-5-6.7-12.4-6.7-22.1c0-6.7,1.2-12.4,3.5-17c2.1-4.4,5.4-8,9.6-10.4
	c4.3-2.3,9.1-3.5,13.9-3.4c8.7,0,15.3,2.5,19.8,7.6c4.5,5.1,6.7,12.3,6.7,21.8c0,6.8-1.1,12.5-3.4,17.1c-2,4.4-5.3,8-9.5,10.4
	C649.6,104.3,644.6,105.5,639.5,105.4z M624.9,74.5c0,8.4,1.3,14.8,4,19.3c2.7,4.5,6.5,6.7,11.4,6.7c2.5,0.1,4.9-0.6,7-2
	c2-1.4,3.6-3.2,4.7-5.3c1.3-2.4,2.1-5.1,2.6-7.8c0.5-3.1,0.8-6.1,0.8-9.3c0.1-5-0.5-10.1-2-14.9c-1.3-4-3.1-6.9-5.4-8.7
	c-2.2-1.8-5-2.8-7.8-2.8c-4.7-0.1-9,2.3-11.3,6.4C626.3,60.5,625,66.6,624.9,74.5L624.9,74.5z"/>
<path class="st0" d="M720.5,38c0-3.9,0-6.6-0.1-8.2c0-1.3-0.2-2.6-0.5-3.9c-0.2-0.9-0.6-1.8-1.1-2.5c-0.5-0.6-1.2-1.1-1.9-1.5
	c-1.4-0.5-2.8-0.9-4.3-1.1v-3.2l14.8-0.6h3.6v70.7c0,3.2,0.1,5.4,0.2,6.8c0.1,1.1,0.3,2.2,0.8,3.3c0.4,0.8,1.1,1.5,1.9,2
	c1.5,0.7,3,1.2,4.6,1.4v3.2l-14.4,0.6h-3.7l0.7-10l-0.9-0.2c-2,2.2-4.3,4.3-6.7,6.1c-1.9,1.3-3.9,2.4-6,3.3
	c-2.2,0.8-4.5,1.2-6.9,1.2c-6.7,0-11.8-2.5-15.4-7.6c-3.6-5.1-5.4-12.4-5.4-21.9c0-6.7,1.2-12.3,3.5-17c2.1-4.4,5.4-8,9.5-10.4
	c4.1-2.3,8.8-3.5,13.5-3.4c2.5,0,4.9,0.2,7.3,0.6c2.3,0.5,4.6,1.2,6.8,2.1L720.5,38z M720.5,68.2c0-2.6-0.1-5.1-0.4-7.6
	c-0.2-1.7-0.7-3.3-1.4-4.8c-0.7-1.3-1.6-2.4-2.7-3.3c-1.1-0.9-2.4-1.5-3.8-2c-1.6-0.4-3.3-0.6-4.9-0.6c-4.8-0.2-9.4,2.2-11.9,6.3
	c-2.7,4.2-4.1,10.2-4.1,18s1.1,13.8,3.4,17.8c1.9,3.9,5.9,6.3,10.2,6.1c1.5,0,3-0.1,4.5-0.5c1.2-0.3,2.4-0.8,3.5-1.5
	c1.3-0.8,2.4-1.7,3.5-2.8c1-1,1.9-2,2.6-3.2c0.6-1.1,1-2.2,1.3-3.4c0.3-1.6,0.5-3.2,0.4-4.9L720.5,68.2z"/>
<path class="st0" d="M797.4,94c-2.2,2.4-4.6,4.5-7.2,6.4c-2.2,1.6-4.6,2.8-7.2,3.6c-2.8,0.9-5.7,1.4-8.6,1.3c-8.4,0-14.7-2.5-19-7.5
	c-4.3-5-6.4-12.4-6.4-22.3c-0.1-5.5,1-11,3.3-16c2-4.4,5.2-8.2,9.3-10.7c4.2-2.6,9-3.9,13.9-3.8c3.6-0.1,7.2,0.6,10.5,2
	c2.7,1.2,5.1,3,6.9,5.3c1.9,2.6,3.2,5.5,4,8.5c1.1,4.4,1.6,8.9,1.6,13.5h-38.4v1c-0.1,4.1,0.4,8.2,1.6,12.1c0.9,3.1,2.8,5.7,5.3,7.7
	c2.8,2,6.2,2.9,9.6,2.8c3.1,0,6.2-0.6,9-1.9c3-1.5,5.7-3.6,8-6.1L797.4,94z M787.1,69.2c-0.1-3.6-0.7-7.3-1.7-10.8
	c-0.6-2.5-2-4.7-3.8-6.4c-1.9-1.5-4.3-2.3-6.7-2.2c-4-0.1-7.7,1.8-10,5c-2.5,3.3-4,8.1-4.4,14.4L787.1,69.2z"/>
<path class="st0" d="M829.6,88.9c0,1.9,0.1,3.8,0.4,5.7c0.2,1.2,0.6,2.3,1.2,3.4c0.5,0.9,1.3,1.5,2.2,2c1.4,0.6,2.9,1,4.4,1.3v3
	h-26.8v-3c2.5-0.7,4.2-1.4,5.1-2.2c0.9-0.9,1.5-2.1,1.7-3.4c0.3-2.2,0.4-4.5,0.4-6.7V36.4c0-2.1-0.1-4.1-0.3-6.1
	c-0.1-1.1-0.5-2.1-1-3c-0.5-0.7-1.1-1.3-1.9-1.7c-1.3-0.6-2.6-1.1-4-1.4v-3h30.3c9.5,0,16.6,1.8,21.3,5.5c4.7,3.6,7,9.2,7,16.6
	c0.1,3.9-0.7,7.8-2.2,11.4c-1.4,3.2-3.5,6.1-6.2,8.3c-2.8,2.2-6.1,3.8-9.5,4.6c-3.8,1-7.6,1.4-11.5,1.4c-4.5,0-8-0.1-10.5-0.3
	L829.6,88.9z M829.6,63.6h7.1c3.9,0.1,7.7-0.5,11.4-1.8c2.9-1.1,5.3-3.3,6.9-6c1.6-2.8,2.4-6.5,2.4-11.1c0.1-3-0.4-6-1.4-8.8
	c-1.6-4.4-5.3-7.6-9.8-8.7c-2.4-0.6-4.9-0.9-7.4-0.9c-4,0-7,0.1-9.1,0.2V63.6z"/>
<path class="st0" d="M897,56.1l0.8,0.2c1.9-2.3,3.9-4.5,6.2-6.4c1.9-1.5,3.9-2.8,6.2-3.6c2.4-0.9,5-1.3,7.5-1.3
	c2.1,0,4.3,0.1,6.4,0.4v14h-6.9c-0.7-1.8-1.8-3.4-3.1-4.8c-1.3-1.1-2.9-1.6-4.5-1.5c-1.5,0-3,0.5-4.4,1.3c-1.6,1-3,2.3-4.2,3.7
	c-1.2,1.4-2.1,2.9-2.8,4.6c-0.5,1.6-0.8,3.3-0.8,5.1v21.4c-0.1,2.6,0.1,5.1,0.7,7.7c0.3,1.3,1.1,2.4,2.2,3.1c1.5,0.8,3,1.3,4.7,1.5
	v3h-24.6v-3c1.1-0.3,2.3-0.8,3.3-1.3c0.7-0.4,1.3-0.9,1.7-1.5c0.6-0.9,1-1.9,1.1-3c0.3-2.1,0.4-4.2,0.4-6.3V62.7
	c0-2.6,0-4.7-0.1-6.3c0-1.3-0.3-2.6-0.9-3.8c-0.5-0.9-1.3-1.7-2.2-2.1c-1.4-0.6-2.8-1-4.2-1.2v-3.2l14.3-0.6h3.7L897,56.1z"/>
<path class="st0" d="M957,105.4c-8.5,0-14.9-2.5-19.4-7.5c-4.5-5-6.7-12.4-6.7-22.1c0-6.7,1.2-12.4,3.5-17c2.1-4.4,5.4-8,9.6-10.4
	c4.3-2.3,9.1-3.5,13.9-3.4c8.7,0,15.3,2.5,19.8,7.6c4.5,5.1,6.7,12.3,6.7,21.8c0,6.8-1.1,12.5-3.4,17.1c-2,4.4-5.3,8-9.5,10.4
	C967.1,104.3,962.1,105.5,957,105.4z M942.4,74.5c0,8.4,1.3,14.8,4,19.3c2.7,4.5,6.5,6.7,11.4,6.7c2.5,0.1,4.9-0.6,7-2
	c2-1.4,3.6-3.2,4.7-5.3c1.3-2.4,2.1-5.1,2.6-7.8c0.5-3.1,0.8-6.1,0.8-9.3c0.1-5-0.5-10.1-2-14.9c-1.3-4-3.1-6.9-5.4-8.7
	c-2.2-1.8-5-2.8-7.8-2.8c-4.7-0.1-9,2.3-11.3,6.4C943.8,60.5,942.5,66.6,942.4,74.5L942.4,74.5z"/>
<path class="st0" d="M69.2,23.2l23.4,35.3v4L66.3,98.8h30.9c4,0,6.8-0.9,8.6-2.6s3.2-5.8,4.4-12.1h6.8l-1.5,26H50.9v-3.4l30.5-42
	L52.8,20.3v-3.3h63v23.8h-6.4c-1.9-7.3-3.8-12.1-5.8-14.3c-2-2.2-4.8-3.3-8.5-3.3L69.2,23.2z"/>
<path class="st0" d="M42.9,127c-7,0-12.6-0.9-16.7-2.7c-3.8-1.6-6.9-4.5-8.8-8.1c-1.8-3.6-2.7-8.5-2.7-14.6V81.8
	c0.1-3.2-0.4-6.4-1.5-9.5c-0.9-2.1-2.5-3.8-4.6-4.7c-2.7-1-5.7-1.5-8.6-1.4v-5.6c2.9,0.1,5.8-0.3,8.5-1.4c2.1-0.9,3.7-2.6,4.6-4.7
	c1-2.2,1.6-5.4,1.6-9.5V25.4c0-6.1,0.9-10.9,2.7-14.6c1.8-3.7,5-6.6,8.8-8.1C30.3,0.9,35.8,0,42.9,0h1.8v5.5
	c-2.7-0.1-5.4,0.1-8.1,0.6C35,6.4,33.5,7,32.2,7.9c-1.1,0.8-2.1,1.8-2.7,3c-0.9,1.6-1.4,3.3-1.7,5.1c-0.5,2.9-0.7,5.8-0.6,8.7v13.2
	c0.1,3.9-0.3,7.7-1.2,11.5c-0.7,3-2.2,5.7-4.3,8c-2.4,2.5-5.2,4.3-8.4,5.6v1.2c3.2,1.2,6,3.1,8.4,5.6c2.1,2.3,3.6,5.1,4.3,8.1
	c0.8,3.7,1.2,7.5,1.2,11.3v13.2c0,2.9,0.2,5.8,0.6,8.7c0.3,1.8,0.8,3.5,1.7,5.1c0.7,1.2,1.6,2.2,2.8,3c1.3,0.9,2.8,1.5,4.4,1.8
	c2.7,0.4,5.4,0.6,8.1,0.6v5.5L42.9,127z"/>
<path class="st0" d="M128.9,0c7,0,12.6,0.9,16.7,2.7c3.8,1.6,6.9,4.4,8.8,8.1c1.8,3.6,2.7,8.5,2.7,14.6v19.7c0,4.1,0.5,7.3,1.6,9.5
	c0.9,2.1,2.6,3.8,4.6,4.7c2.7,1,5.6,1.5,8.5,1.4v5.6c-2.9-0.1-5.8,0.3-8.6,1.4c-2.1,0.9-3.7,2.6-4.6,4.7c-1,2.3-1.5,5.4-1.5,9.4
	v19.7c0,6.1-0.9,11-2.7,14.6c-1.9,3.7-5,6.6-8.8,8.1c-4.1,1.8-9.7,2.7-16.7,2.7h-1.8v-5.5c2.7,0.1,5.4-0.1,8.1-0.6
	c1.6-0.3,3.1-0.9,4.4-1.8c1.1-0.8,2.1-1.8,2.8-3c0.9-1.6,1.4-3.3,1.7-5.1c0.5-2.9,0.7-5.8,0.6-8.7V89.1c-0.1-3.9,0.3-7.7,1.2-11.5
	c0.7-3,2.2-5.7,4.3-8c2.3-2.5,5.2-4.3,8.4-5.5v-1.2c-3.2-1.2-6-3.1-8.3-5.6c-2.1-2.3-3.6-5.1-4.3-8.1c-0.8-3.7-1.2-7.5-1.2-11.3
	V24.6c0.1-2.9-0.2-5.8-0.6-8.7c-0.3-1.8-0.9-3.5-1.8-5.1c-0.7-1.2-1.6-2.2-2.8-3c-1.3-0.9-2.8-1.5-4.4-1.8c-2.7-0.4-5.4-0.6-8.1-0.6
	V0L128.9,0z"/>
</svg>
